<?xml version="1.0" standalone="no"?>
<!DOCTYPE svg PUBLIC "-//W3C//DTD SVG 20010904//EN"
 "http://www.w3.org/TR/2001/REC-SVG-20010904/DTD/svg10.dtd">
<svg version="1.0" xmlns="http://www.w3.org/2000/svg"
 width="1280.000000pt" height="1181.000000pt" viewBox="0 0 1280.000000 1181.000000"
 preserveAspectRatio="xMidYMid meet">
<metadata>
Created by potrace 1.15, written by Peter Selinger 2001-2017
</metadata>
<g transform="translate(0.000000,1181.000000) scale(0.100000,-0.100000)"
fill="#000000" stroke="none">
<path d="M11690 11785 c-124 -13 -769 -78 -1435 -144 -2509 -250 -3933 -392
-4325 -431 -222 -22 -440 -40 -483 -40 -71 0 -86 4 -138 32 -32 18 -60 30 -62
28 -2 -3 -1148 -1962 -2547 -4355 -1399 -2392 -2579 -4408 -2622 -4480 l-78
-130 0 -103 0 -102 61 -123 c42 -83 114 -196 226 -354 l165 -232 216 -187
c164 -142 265 -219 422 -324 181 -121 220 -142 330 -183 122 -46 133 -48 505
-97 362 -48 490 -58 2730 -225 1293 -96 2838 -211 3434 -255 596 -45 1088 -77
1092 -73 4 4 46 112 93 238 46 127 148 401 226 610 183 491 367 989 440 1185
69 185 246 663 440 1185 78 209 195 524 260 700 65 176 182 491 260 700 78
209 159 427 180 485 21 58 102 276 180 485 78 209 195 524 260 700 65 176 182
491 260 700 194 522 371 1000 440 1185 32 85 112 301 178 480 66 179 184 496
261 704 78 208 141 385 141 392 0 11 -19 13 -87 9 -49 -3 -134 -7 -190 -10
l-102 -5 -83 122 c-46 68 -132 199 -191 293 l-109 170 -43 280 c-24 154 -49
339 -55 410 l-12 130 80 317 c69 276 77 318 63 322 -52 16 -179 12 -381 -9z"/>
</g>
</svg>
